<svg xmlns="http://www.w3.org/2000/svg" viewBox="0 0 100 100">
  <defs>
    <radialGradient id="bg" cx="50%" cy="20%" r="105%">
      <stop offset="0%" stop-color="#1a1e2c"/>
      <stop offset="100%" stop-color="#0d0e12"/>
    </radialGradient>
    <radialGradient id="glass" cx="50%" cy="45%" r="55%">
      <stop offset="0%" stop-color="#222c6a"/>
      <stop offset="70%" stop-color="#151a3a"/>
      <stop offset="100%" stop-color="#080a16"/>
    </radialGradient>
    <radialGradient id="halo" cx="50%" cy="50%" r="50%">
      <stop offset="62%" stop-color="#6f8ce6" stop-opacity="0.55"/>
      <stop offset="100%" stop-color="#6f8ce6" stop-opacity="0"/>
    </radialGradient>
    <linearGradient id="rim" x1="0" y1="0" x2="0" y2="1">
      <stop offset="0%" stop-color="#eaf4ff"/>
      <stop offset="100%" stop-color="#c9b4ff"/>
    </linearGradient>
    <linearGradient id="crest" x1="0" y1="0" x2="1" y2="0">
      <stop offset="0%" stop-color="#ffffff" stop-opacity="0"/>
      <stop offset="45%" stop-color="#ffffff"/>
      <stop offset="100%" stop-color="#ffffff" stop-opacity="0"/>
    </linearGradient>
    <filter id="soft" x="-30%" y="-30%" width="160%" height="160%"><feGaussianBlur stdDeviation="3"/></filter>
    <filter id="bloom" x="-30%" y="-60%" width="160%" height="220%"><feGaussianBlur stdDeviation="1.2"/></filter>
    <clipPath id="ball"><circle cx="50" cy="50" r="31.5"/></clipPath>
  </defs>
  <rect width="100" height="100" rx="22" fill="url(#bg)"/>
  <circle cx="50" cy="50" r="40" fill="url(#halo)"/>
  <circle cx="50" cy="50" r="31.5" fill="url(#glass)"/>
  <g clip-path="url(#ball)">
    <path d="M26 51 C36 44 42 36 50 38 S64 44 72 49 C62 52 56 53 48 53 S34 53 26 51Z" fill="#5b8cff" opacity="0.85" filter="url(#soft)"/>
    <path d="M28 53 C38 57 44 66 51 64 S64 56 72 50 C62 52 56 55 48 56 S36 55 28 53Z" fill="#9a78ff" opacity="0.8" filter="url(#soft)"/>
    <path d="M24 50.5 C32 51 37 57.5 45 57 S56 49 63 47.5 S73 47.5 78 49.5" fill="none" stroke="#b9ccff" stroke-width="5" stroke-linecap="round" opacity="0.7" filter="url(#bloom)"/>
    <path d="M24 50.5 C32 51 37 57.5 45 57 S56 49 63 47.5 S73 47.5 78 49.5" fill="none" stroke="url(#crest)" stroke-width="2.6" stroke-linecap="round"/>
  </g>
  <circle cx="50" cy="50" r="31" fill="none" stroke="#b9ccff" stroke-width="3" opacity="0.6" filter="url(#bloom)"/>
  <circle cx="50" cy="50" r="31" fill="none" stroke="url(#rim)" stroke-width="1.3"/>
</svg>
